# xmcd
#
# Track frame offsets: 
#        150
#        7636
#        15541
#        23042
#        33142
#        39178
#        45687
#        49790
#        56630
#        61100
#        69299
#        74849
#        81193
#        88564
#        95301
#        100520
#        108438
#        114702
#        123829
#        129442
#        136224
#        140379
#        146608
#
# Disc length: 2041 seconds
#
# Revision: 0
# Processed by: cddbd v1.5.2PL0 Copyright (c) Steve Scherf et al.
# Submitted via: ExactAudioCopy v1.0b3
#
DISCID=2307f717
DTITLE=Various Artist - Bleh
DYEAR=2006
DGENRE=Hardcore
TTITLE0=Half the Battle - Is Your Heart Shaped $?
TTITLE1=Half the Battle - My Daughter is a Monster Truck
TTITLE2=Half the Battle - Article
TTITLE3=Half the Battle - Meter Plus Twenty
TTITLE4=Half the Battle - No Sacrifice Too Great (GCF)
TTITLE5=Half the Battle - Shred
TTITLE6=Half the Battle - A Name You Call Yourself
TTITLE7=Half the Battle - Authoring A New History
TTITLE8=Play - Swallowed Words
TTITLE9=Play - Build This Together
TTITLE10=Play - In Your Hands
TTITLE11=Play - Lost Soul
TTITLE12=Play - All
TTITLE13=Play - Ending Ways
TTITLE14=Play - I've Been Shot
TTITLE15=Feud - Direction
TTITLE16=Feud - Uproot and Burn
TTITLE17=Feud - What Keeps Us In Line
TTITLE18=Feud - The Downfall Of Common Sense
TTITLE19=Feud - Begging For A Beautiful Life
TTITLE20=Feud - Awareness
TTITLE21=Feud - Sister (Manliftingbanner)
TTITLE22=Feud - Satire
EXTD=
EXTT0=
EXTT1=
EXTT2=
EXTT3=
EXTT4=
EXTT5=
EXTT6=
EXTT7=
EXTT8=
EXTT9=
EXTT10=
EXTT11=
EXTT12=
EXTT13=
EXTT14=
EXTT15=
EXTT16=
EXTT17=
EXTT18=
EXTT19=
EXTT20=
EXTT21=
EXTT22=
PLAYORDER=
